<?xml version="1.0" encoding="UTF-8"?>
<svg id="Ebene_1" xmlns="http://www.w3.org/2000/svg" version="1.1" viewBox="0 0 841.89 595.28">
  <!-- Generator: Adobe Illustrator 30.2.1, SVG Export Plug-In . SVG Version: 2.1.1 Build 1)  -->
  <defs>
    <style>
      .st0 {
        fill: #1d1d1b;
      }
    </style>
  </defs>
  <path class="st0" d="M675.74,383.25l7.38-11.14c2.24-3.43,3.86-4.81,5.28-4.81,1.57,0,2,1.33.95,2.95l-5.66,8.62c-1.76,2.71-1.19,4.86,1.33,4.86s5.9-2.86,7.47-7.28l-.29-.05c-1.71,3.71-4.33,5.28-6.57,5.28-1.43,0-2.19-.9-.86-3l5.28-8.09c1.52-2.33.29-4.28-1.95-4.28-1.71,0-4.14,1.81-6.71,5.81,2.05-3.43,1.14-5.81-1.86-5.81-.24.43-.29.86,0,1.24,2.28,0,3.05,1.95.81,5.28l-6.62,9.95c.19.19,1.52.48,2,.48M598.16,378.11c-.33.57-.05,1.57.48,1.95,9.23-3.33,19.33-6.24,42.08-6.81l9.71-.24c16.33-.38,23.23-5.52,29.13-5.47.33-.52.29-1.19,0-1.24-6.66,0-12.76,4.19-28.99,4.66l-9.95.29c-22.23.62-33.37,3.62-42.46,6.85M584.31,380.92c.1-1.57,1.14-4,4.81-8.04,1.9-.81,4.14-2.05,6.81-3.9.48-.33.86-.67,1.09-.95-5.28,9.62-10,14.33-11.71,14.33-.81,0-1.05-.52-1-1.43M574.65,398.91c0-2.76,4.62-8.85,13.66-14.09-5.85,10.04-10,15.52-12.47,15.52-.86,0-1.19-.48-1.19-1.43M585.45,383.25c1.71,0,4.43-2.09,6.28-4.43l-.43.71-1.19,2.09c-10.76,5.66-16.85,13.04-16.85,16.85,0,1.67,1,2.71,2.57,2.71,2.86,0,7.33-5.43,14.14-17.33,2.57-1.38,5.43-2.67,8.66-3.81.19-.57-.14-1.62-.48-1.95-2.28.81-4.47,1.76-6.52,2.76l.62-1.09,7.47-12.76c-.29-.24-1.43-.48-1.9-.48l-.57,1.05c.05-.14.05-.19.05-.29,0-.62-.57-1-1.33-1-4.95,0-12.47,10.66-12.47,14.8,0,1.52.71,2.14,1.95,2.14M563.22,374.78c17.56.29,20.18-.48,25.42-2.05.38-.52.33-1.33.1-1.62-5.81,1.71-7.57,2.19-25.51,1.67-24.32-.71-35.32,1.05-47.27,5.33-.33.57-.05,1.57.48,1.95,12.09-4.38,22.66-5.66,46.79-5.28M503.92,374.16l2.76-4.14c1.33-2.05.71-3.71-1.95-3.71-.24.43-.29.86,0,1.24,1.62,0,2,.95.81,2.76l-2.62,3.86-2.14,3.43c-2.24,3.57-.19,5.66,3.05,5.66,2.38,0,8.04-1.57,12.57-3.19.33-.57.14-1.67-.43-1.95-4.14,1.48-9.57,3.52-12.14,3.52-2.05,0-4.14-1.09-1.29-5.38l1.38-2.09ZM513.01,360.26c.76,0,1.43-.71,1.52-1.43.05-.71-.57-1.33-1.24-1.33-.76,0-1.43.62-1.52,1.33-.05.71.52,1.43,1.24,1.43M431.81,378.11c-.33.57-.05,1.57.48,1.95,13.23-4.76,27.42-6.76,51.65-8.52,13.33-.95,17.61-4.05,20.85-4,.33-.52.29-1.19,0-1.24-3.71,0-7.57,2.33-20.71,3.24-24.56,1.71-39.22,3.95-52.26,8.57M420.67,381.54c1.38-1,2.28-2.9,2.28-5.14,0-1.86-.43-3.62-.76-5.24,2.38-1.76,3-3.86,3-4.86,0-1.71-1.05-2.38-1.9-2.38-1.57,0-2.24,1.9-2.24,4.76,0,.43.05.9.1,1.33-1.71,1.09-4.33,2-8.19,2.33-.29.67-.43,1.29-.24,1.76,3.95-.33,6.76-1.29,8.66-2.43.19,1.43.48,3.09.48,5,0,3-1.71,5-3.33,5-1.38,0-2.48-.57-3.47-1.86-.29-.38-1.57.29-1.57.95-.05,1.05,1.43,2.9,3.28,2.9.76,0,1.48-.29,1.95-.57.29.14.67.14,1,.14,2.33,0,8.04-1.57,12.57-3.19.33-.57.14-1.67-.48-1.95-3.76,1.33-8.47,3.09-11.14,3.43M423,364.5c.62,0,.95.48.95,1.24,0,1.05-.48,2.43-2.05,3.71-.1-.57-.14-1.09-.14-1.67,0-2,.57-3.28,1.24-3.28M388.45,374.83c13.42.14,18.28-.05,24.28-.71.38-.57.48-1.57.24-1.76-6.14.67-9.95.71-24.61.48-20.61-.33-29.46,2.05-38.56,5.28-.33.57-.05,1.57.48,1.95,9.23-3.33,17.14-5.47,38.18-5.24M332.28,372.21c1.43-2.86,4-5.09,5.76-5.09.95,0,1.43.57,1.43,1.29,0,1.43-1.76,3.14-7.19,3.81M337.09,383.25c3,0,8.66-1.57,13.19-3.19.33-.57.14-1.67-.48-1.95-4.14,1.48-9.47,3.38-12.71,3.38-4.14,0-5.9-1.62-5.9-4.86,0-.86.14-1.81.38-2.62,7.04-.76,9.57-3.28,9.57-5.52,0-1.24-1.05-2.19-2.43-2.19h-.05c-2.76,0-5.71,2.67-7.24,6l-.38.05c-.24.62-.33,1.43-.24,1.71-.29,1-.43,1.9-.43,2.86,0,3.62,1.52,6.33,6.71,6.33M308.82,374.83c11.14,0,15.99-.05,21.99-.71.38-.57.48-1.57.24-1.76-6.14.67-9.95.57-22.28.52-14.38-.05-23.37,2-32.46,5.24-.33.57-.05,1.57.48,1.95,9.23-3.33,17.23-5.24,32.03-5.24M261.6,373.4c3.19-9.28,14.04-26.8,17.33-26.8,2.86,0-3.28,9.09-8.14,15.61-2.9,3.95-6.14,7.85-9.19,11.19M251.27,383.25c1.95-.1,4.95-2.24,8.43-5.57-.14,3.24,1.05,5.57,4.19,5.57s8.33-1.57,12.9-3.19c.29-.57.14-1.67-.48-1.95-4.14,1.48-9.66,3.43-12.47,3.43-2.48,0-3.09-1.71-3.09-4.19,0-.19,0-.48.05-.81,3.71-3.71,7.85-8.62,11.42-13.28,6.52-8.57,11.57-17.47,6.9-17.47s-16.47,20.23-18.94,29.23c-4.09,4.28-7.52,7.24-8.95,7.28-.62,0-.95-.19-.9-1.09.1-3.19,3.67-8.38,10.52-12.38,1.38-.81,2.28-.81,2.14-1.43-.1-.71-.86-1.24-2-1.24-4.9,0-11.42,9.76-11.42,15.23,0,1.29.71,1.81,1.62,1.86h.1Z"/>
</svg>